custom-analysis
version=1
nRows=6
nColumns=98
inDegrees=no

This file contains tibia displacement and acting force.

Units are S.I. units (seconds, meters, Newtons, ...)
Angles are in degrees.

endheader
time	APT	SIT	knee_angle	aACL_R_force	pACL_R_force	aPCL_R_force	pPCL_R_force	aMCL_R_force	mMCL_R_force	pMCL_R_force	aLCL_R_force	mLCL_R_force	pLCL_R_force	aPCL_L_force	pPCL_L_force	aMCL_L_force	aLCL_L_force	aACL_R_length	pACL_R_length	aPCL_R_length	pPCL_R_length	aMCL_R_length	mMCL_R_length	pMCL_R_length	aLCL_R_length	mLCL_R_length	pLCL_R_length	aPCL_L_length	pPCL_L_length	aMCL_L_length	aLCL_L_length	aACL_R_strain	pACL_R_strain	aPCL_R_strain	pPCL_R_strain	aMCL_R_strain	mMCL_R_strain	pMCL_R_strain	aLCL_R_strain	mLCL_R_strain	pLCL_R_strain	aPCL_L_strain	pPCL_L_strain	aMCL_L_strain	aLCL_L_strain	femur_lat_meniscii_r.femur_lat_r.force.X	femur_lat_meniscii_r.femur_lat_r.force.Y	femur_lat_meniscii_r.femur_lat_r.force.Z	femur_lat_meniscii_r.femur_lat_r.torque.X	femur_lat_meniscii_r.femur_lat_r.torque.Y	femur_lat_meniscii_r.femur_lat_r.torque.Z	femur_lat_meniscii_r.meniscus_lat_r.force.X	femur_lat_meniscii_r.meniscus_lat_r.force.Y	femur_lat_meniscii_r.meniscus_lat_r.force.Z	femur_lat_meniscii_r.meniscus_lat_r.torque.X	femur_lat_meniscii_r.meniscus_lat_r.torque.Y	femur_lat_meniscii_r.meniscus_lat_r.torque.Z	femur_med_meniscii_r.femur_med_r.force.X	femur_med_meniscii_r.femur_med_r.force.Y	femur_med_meniscii_r.femur_med_r.force.Z	femur_med_meniscii_r.femur_med_r.torque.X	femur_med_meniscii_r.femur_med_r.torque.Y	femur_med_meniscii_r.femur_med_r.torque.Z	femur_med_meniscii_r.meniscus_med_r.force.X	femur_med_meniscii_r.meniscus_med_r.force.Y	femur_med_meniscii_r.meniscus_med_r.force.Z	femur_med_meniscii_r.meniscus_med_r.torque.X	femur_med_meniscii_r.meniscus_med_r.torque.Y	femur_med_meniscii_r.meniscus_med_r.torque.Z	femur_med_tibia_r.tibia_upper_r.force.X	femur_med_tibia_r.tibia_upper_r.force.Y	femur_med_tibia_r.tibia_upper_r.force.Z	femur_med_tibia_r.tibia_upper_r.torque.X	femur_med_tibia_r.tibia_upper_r.torque.Y	femur_med_tibia_r.tibia_upper_r.torque.Z	femur_med_tibia_r.femur_med_r.force.X	femur_med_tibia_r.femur_med_r.force.Y	femur_med_tibia_r.femur_med_r.force.Z	femur_med_tibia_r.femur_med_r.torque.X	femur_med_tibia_r.femur_med_r.torque.Y	femur_med_tibia_r.femur_med_r.torque.Z	femur_lat_tibia_r.tibia_upper_r.force.X	femur_lat_tibia_r.tibia_upper_r.force.Y	femur_lat_tibia_r.tibia_upper_r.force.Z	femur_lat_tibia_r.tibia_upper_r.torque.X	femur_lat_tibia_r.tibia_upper_r.torque.Y	femur_lat_tibia_r.tibia_upper_r.torque.Z	femur_lat_tibia_r.femur_lat_r.force.X	femur_lat_tibia_r.femur_lat_r.force.Y	femur_lat_tibia_r.femur_lat_r.force.Z	femur_lat_tibia_r.femur_lat_r.torque.X	femur_lat_tibia_r.femur_lat_r.torque.Y	femur_lat_tibia_r.femur_lat_r.torque.Z	femur_lat_meniscii_force_r	femur_med_meniscii_force_r	femur_lat_tibia_force_r	femur_med_tibia_force_r
      0.25769331	      0.00108031	      0.00051427	      1.66574369	     18.40874174	     40.13602678	      0.00000000	      0.00000000	      0.00000000	      2.73973787	     42.69180940	     -0.34433275	      0.00000000	     -0.12704435	      0.00000000	      0.00000000	      0.00000001	      0.00000000	      0.03253426	      0.02688753	      0.02842029	      0.02876810	      0.05613869	      0.06095131	      0.06326037	      0.05610806	      0.05454097	      0.05268996	      0.01525851	      0.01651186	      0.06550154	      0.04489616	      0.04930619	      0.07298186	     -0.08602623	     -0.03746359	     -0.06477602	      0.01936355	      0.07717563	      0.00233776	     -0.03156378	      0.00663444	      0.00000079	     -0.32847694	      0.00000060	     -0.00000086	     34.29649222	     80.50889081	      6.44633800	     -4.69573335	      0.86043492	     14.39785156	    -34.29649222	    -80.50889081	     -6.44633800	      2.62669795	     -1.03772974	     -1.17569880	     42.20783021	     80.41394124	      6.24545021	     -0.83810278	     -0.95628619	     17.94528838	    -42.20783021	    -80.41394124	     -6.24545021	     -1.15415435	      0.73875663	     -1.68044649	     -1.64554883	    -13.92592749	      4.62136652	     -0.30734654	     -0.03819730	     -0.22531106	      1.64554883	     13.92592749	     -4.62136652	      2.15570120	      0.03162659	      0.86366220	      0.00000000	      0.00000000	      0.00000000	      0.00000000	      0.00000000	      0.00000000	      0.00000000	      0.00000000	      0.00000000	      0.00000000	      0.00000000	      0.00000000	     87.74671591	     91.03245864	      0.00000000	     14.76469831
      0.25899999	      0.00108061	      0.00051407	      1.66574369	     18.42960802	     40.16862228	      0.00000000	      0.00000000	      0.00000000	      2.75173584	     42.70967746	     -0.32879631	      0.00000000	     -0.11045758	      0.00000000	      0.00000000	      0.00000001	      0.00000000	      0.03253486	      0.02688815	      0.02841999	      0.02876789	      0.05613911	      0.06095175	      0.06326080	      0.05610753	      0.05454043	      0.05268942	      0.01525851	      0.01651186	      0.06550154	      0.04489616	      0.04932555	      0.07300667	     -0.08603581	     -0.03747039	     -0.06476906	      0.01937089	      0.07718292	      0.00232823	     -0.03157333	      0.00662407	      0.00000079	     -0.32847694	      0.00000060	     -0.00000086	     34.32619080	     80.55149837	      6.44142703	     -4.69486856	      0.86122873	     14.41042158	    -34.32619080	    -80.55149837	     -6.44142703	      2.62804969	     -1.03872597	     -1.17675665	     42.21248251	     80.34955286	      6.23827665	     -0.83660819	     -0.95623693	     17.94657620	    -42.21248251	    -80.34955286	     -6.23827665	     -1.15310766	      0.73862262	     -1.67989495	     -1.63617991	    -13.83312402	      4.59203527	     -0.30533485	     -0.03794391	     -0.22386361	      1.63617991	     13.83312402	     -4.59203527	      2.14195635	      0.03141076	      0.85858636	      0.00000000	      0.00000000	      0.00000000	      0.00000000	      0.00000000	      0.00000000	      0.00000000	      0.00000000	      0.00000000	      0.00000000	      0.00000000	      0.00000000	     87.79705716	     90.97725222	      0.00000000	     14.66694217
      0.26327404	      0.00108165	      0.00051324	      1.66574369	     18.46045871	     40.23621007	      0.00000000	      0.00000000	      0.00000000	      2.72152657	     42.70027444	     -0.22605858	      0.00000000	     -0.00360633	      0.00000000	      0.00000000	      0.00000001	      0.00000000	      0.03253680	      0.02689012	      0.02841933	      0.02876752	      0.05614059	      0.06095329	      0.06326231	      0.05610626	      0.05453917	      0.05268814	      0.01525851	      0.01651186	      0.06550154	      0.04489616	      0.04938803	      0.07308527	     -0.08605708	     -0.03748295	     -0.06474444	      0.01939651	      0.07720864	      0.00230566	     -0.03159585	      0.00659960	      0.00000079	     -0.32847694	      0.00000060	     -0.00000086	     34.37828462	     80.63141694	      6.45060516	     -4.70109931	      0.86271479	     14.43234680	    -34.37828462	    -80.63141694	     -6.45060516	      2.63144993	     -1.04062375	     -1.17838929	     42.21191351	     80.21508972	      6.25114467	     -0.84512404	     -0.95591007	     17.94428893	    -42.21191351	    -80.21508972	     -6.25114467	     -1.14993549	      0.73812243	     -1.67764633	     -1.58859300	    -13.41383497	      4.45403722	     -0.29606482	     -0.03678983	     -0.21714803	      1.58859300	     13.41383497	     -4.45403722	      2.07752915	      0.03044948	      0.83343686	      0.00000000	      0.00000000	      0.00000000	      0.00000000	      0.00000000	      0.00000000	      0.00000000	      0.00000000	      0.00000000	      0.00000000	      0.00000000	      0.00000000	     87.89142255	     90.85913862	      0.00000000	     14.22297591
      0.26718986	      0.00108279	      0.00051266	      1.66574369	     18.49797889	     40.30401742	      0.00000000	      0.00000000	      0.00000000	      2.71464952	     42.71008265	     -0.02099665	      0.00000000	      0.20870060	      0.00000000	      0.00000000	      0.00000001	      0.00000000	      0.03253845	      0.02689180	      0.02841859	      0.02876700	      0.05614151	      0.06095426	      0.06326329	      0.05610535	      0.05453826	      0.05268724	      0.01525851	      0.01651186	      0.06550154	      0.04489616	      0.04944113	      0.07315211	     -0.08608094	     -0.03750026	     -0.06472902	      0.01941273	      0.07722539	      0.00228926	     -0.03161186	      0.00658233	      0.00000079	     -0.32847694	      0.00000060	     -0.00000086	     34.39678875	     80.66871086	      6.49454810	     -4.72081321	      0.86341937	     14.44005732	    -34.39678875	    -80.66871086	     -6.49454810	      2.63466059	     -1.04154410	     -1.17877383	     42.19666686	     80.10789499	      6.28688647	     -0.86283115	     -0.95530322	     17.93630277	    -42.19666686	    -80.10789499	     -6.28688647	     -1.14631577	      0.73745513	     -1.67536732	     -1.56533171	    -13.19871142	      4.38278721	     -0.29128773	     -0.03617152	     -0.21371412	      1.56533171	     13.19871142	     -4.38278721	      2.04428971	      0.02992665	      0.82100014	      0.00000000	      0.00000000	      0.00000000	      0.00000000	      0.00000000	      0.00000000	      0.00000000	      0.00000000	      0.00000000	      0.00000000	      0.00000000	      0.00000000	     87.93610830	     90.75989464	      0.00000000	     13.99518025
      0.26758145	      0.00108292	      0.00051259	      1.66574369	     18.51350471	     40.32681918	      0.00000000	      0.00000000	      0.00000000	      2.66264221	     42.66122789	     -0.16099498	      0.00000000	      0.06986343	      0.00000000	      0.00000000	      0.00000001	      0.00000000	      0.03253862	      0.02689197	      0.02841853	      0.02876696	      0.05614160	      0.06095435	      0.06326339	      0.05610529	      0.05453821	      0.05268719	      0.01525851	      0.01651186	      0.06550154	      0.04489616	      0.04944665	      0.07315899	     -0.08608293	     -0.03750164	     -0.06472754	      0.01941429	      0.07722703	      0.00228827	     -0.03161278	      0.00658135	      0.00000079	     -0.32847694	      0.00000060	     -0.00000086	     34.43334046	     80.68960980	      6.45091001	     -4.70290565	      0.86426459	     14.45544240	    -34.43334046	    -80.68960980	     -6.45091001	      2.63365906	     -1.04256683	     -1.18007347	     42.23225417	     80.10332271	      6.24123844	     -0.84362891	     -0.95604076	     17.95124361	    -42.23225417	    -80.10332271	     -6.24123844	     -1.14796904	      0.73801934	     -1.67660322	     -1.56478420	    -13.17441062	      4.37707829	     -0.29084696	     -0.03611111	     -0.21341414	      1.56478420	     13.17441062	     -4.37707829	      2.04153230	      0.02986733	      0.82048269	      0.00000000	      0.00000000	      0.00000000	      0.00000000	      0.00000000	      0.00000000	      0.00000000	      0.00000000	      0.00000000	      0.00000000	      0.00000000	      0.00000000	     87.96637031	     90.76926054	      0.00000000	     13.97041371
      0.26820837	      0.00108316	      0.00051251	      1.66574369	     18.52838761	     40.34845446	      0.00000000	      0.00000000	      0.00000000	      2.65390692	     42.65528983	     -0.18084487	      0.00000000	      0.05130465	      0.00000000	      0.00000000	      0.00000001	      0.00000000	      0.03253891	      0.02689226	      0.02841837	      0.02876684	      0.05614171	      0.06095447	      0.06326352	      0.05610515	      0.05453807	      0.05268705	      0.01525851	      0.01651186	      0.06550154	      0.04489616	      0.04945600	      0.07317077	     -0.08608804	     -0.03750571	     -0.06472563	      0.01941634	      0.07722923	      0.00228570	     -0.03161523	      0.00657872	      0.00000079	     -0.32847694	      0.00000060	     -0.00000086	     34.45462419	     80.70091054	      6.43998314	     -4.69860511	      0.86478895	     14.46439028	    -34.45462419	    -80.70091054	     -6.43998314	      2.63365002	     -1.04321159	     -1.18079630	     42.24101954	     80.09194350	      6.23921571	     -0.84306485	     -0.95618041	     17.95472615	    -42.24101954	    -80.09194350	     -6.23921571	     -1.14778215	      0.73809591	     -1.67668374	     -1.56400998	    -13.15656623	      4.37224018	     -0.29049340	     -0.03606032	     -0.21317072	      1.56400998	     13.15656623	     -4.37224018	      2.03923261	      0.02981961	      0.81993961	      0.00000000	      0.00000000	      0.00000000	      0.00000000	      0.00000000	      0.00000000	      0.00000000	      0.00000000	      0.00000000	      0.00000000	      0.00000000	      0.00000000	     87.98426833	     90.76315860	      0.00000000	     13.95198360
